<?xml version="1.0" encoding="UTF-8" standalone="no"?>
<!-- Created with Inkscape (http://www.inkscape.org/) -->

<svg
   width="210mm"
   height="297mm"
   viewBox="0 0 210 297"
   version="1.1"
   id="svg5"
   sodipodi:docname="drawing.svg"
   inkscape:version="1.1.2 (0a00cf5339, 2022-02-04)"
   xmlns:inkscape="http://www.inkscape.org/namespaces/inkscape"
   xmlns:sodipodi="http://sodipodi.sourceforge.net/DTD/sodipodi-0.dtd"
   xmlns="http://www.w3.org/2000/svg"
   xmlns:svg="http://www.w3.org/2000/svg">
  <sodipodi:namedview
     id="namedview7"
     pagecolor="#ffffff"
     bordercolor="#666666"
     borderopacity="1.0"
     inkscape:pageshadow="2"
     inkscape:pageopacity="0.0"
     inkscape:pagecheckerboard="0"
     inkscape:document-units="mm"
     showgrid="false"
     inkscape:zoom="0.63785073"
     inkscape:cx="396.64453"
     inkscape:cy="561.25984"
     inkscape:window-width="1920"
     inkscape:window-height="1004"
     inkscape:window-x="0"
     inkscape:window-y="0"
     inkscape:window-maximized="1"
     inkscape:current-layer="layer1" />
  <defs
     id="defs2" />
  <g
     inkscape:label="Layer 1"
     inkscape:groupmode="layer"
     id="layer1">
    <g
       id="g67"
       transform="translate(19.940971,27.973579)">
      <path
         style="fill:#4881f5;stroke-width:0.264583"
         d="m 138.69216,176.23745 c -0.43657,-0.31633 -3.3536,-2.61056 -6.48229,-5.09828 -3.1287,-2.48772 -7.53401,-5.97102 -9.78959,-7.74066 -6.91004,-5.42137 -10.97109,-8.76514 -10.81499,-8.90479 0.0547,-0.0489 0.63515,-0.359 1.28999,-0.68914 2.45157,-1.23594 6.30129,-3.9359 8.69168,-6.09581 5.42998,-4.90643 9.4472,-11.18587 11.24899,-17.58365 l 0.63189,-2.24367 -0.56284,-0.003 c -0.30956,-0.002 -10.65339,-2.6e-4 -22.98628,0.003 l -22.423435,0.006 V 111.08246 94.277691 l 40.533945,0.06699 40.53394,0.06699 0.33041,1.719791 c 1.59639,8.309198 1.97413,14.441788 1.40435,22.799258 -0.34179,5.01318 -0.80947,7.9983 -2.14848,13.71324 -1.50901,6.44054 -5.41705,16.5125 -7.97989,20.56609 -0.38919,0.61557 -0.70761,1.20046 -0.70761,1.29975 0,0.25163 -1.40976,2.43827 -3.38729,5.25394 -2.37439,3.38076 -5.8391,7.49753 -8.91584,10.59386 -2.71699,2.73428 -7.02711,6.47831 -7.44064,6.46338 -0.12775,-0.005 -0.58946,-0.2672 -1.02602,-0.58353 z"
         id="path73" />
      <path
         style="fill:#e73e36;stroke-width:0.264583"
         d="M 36.796723,86.780495 C 33.731245,84.208345 29.847371,80.910566 24.673243,76.486507 23.354483,75.35892 20.422572,72.897689 18.157884,71.017102 15.893199,69.136515 13.887112,67.413308 13.699917,67.187751 13.303336,66.7099 13.505625,66.334308 16.422612,62.132497 24.457144,50.559054 35.10779,41.353536 48.07237,34.777119 c 19.301366,-9.790816 40.739521,-11.996827 62.12302,-6.392531 10.742,2.815322 21.8931,8.372265 30.74573,15.32156 1.38244,1.08522 2.5503,2.001083 2.59523,2.035251 0.10664,0.08109 -23.19682,23.245346 -23.49112,23.350788 -0.12361,0.04429 -1.50823,-0.872445 -3.07693,-2.037178 C 107.97035,60.37419 97.92431,57.16484 86.569243,57.3436 74.824575,57.528493 64.640321,61.305524 55.240384,68.962523 49.210086,73.874681 44.095431,80.502724 41.282646,87.050248 c -0.522732,1.216797 -1.025223,2.258589 -1.116647,2.315093 -0.09143,0.05651 -1.607601,-1.106678 -3.369276,-2.584846 z"
         id="path71" />
      <path
         style="fill:#4bb134;stroke-width:0.264583"
         d="M 77.970285,193.49196 C 64.276087,191.63282 50.462886,186.4736 39.76157,179.22102 c -9.110583,-6.1745 -17.569288,-14.68276 -23.684129,-23.8229 -2.010105,-3.0046 -2.621602,-4.08958 -5.078314,-9.01044 C 6.6494646,137.67518 3.9983265,129.10283 2.6573256,119.41479 2.0714191,115.18191 1.9886812,102.17171 2.5210361,97.983537 3.5056115,90.237593 5.9855139,81.512233 9.1721977,74.581886 c 1.3141753,-2.85805 3.9817993,-7.603357 4.2157333,-7.499172 0.258463,0.115109 7.196653,5.875154 9.812956,8.146658 1.257075,1.091406 3.345725,2.877343 4.641445,3.968749 1.29572,1.091407 3.609342,3.061481 5.141383,4.377942 1.532043,1.31646 3.774352,3.207802 4.982914,4.202982 1.61971,1.333738 2.150805,1.921735 2.020207,2.236645 -1.331463,3.21056 -2.110158,6.109247 -2.910321,10.83365 -0.636937,3.76066 -0.690018,4.60023 -0.57159,9.04045 0.11221,4.20708 0.242578,5.37968 0.927909,8.34603 1.100188,4.762 1.914425,7.06138 4.024627,11.36542 4.831361,9.85423 11.11849,16.6163 20.85128,22.42643 7.178095,4.28507 14.374944,6.56669 23.22745,7.36381 7.588371,0.68329 16.914059,-0.92694 24.552969,-4.23948 1.50991,-0.65476 0.94753,-0.93867 5.46653,2.75966 1.77812,1.45521 5.50858,4.43271 8.28992,6.61667 2.78133,2.18396 7.15242,5.63678 9.71353,7.67292 2.56112,2.03614 4.97593,3.9402 5.36625,4.23124 l 0.70968,0.52917 -2.17355,1.5875 c -4.98375,3.63998 -11.43419,7.16615 -17.60985,9.62652 -6.13225,2.44308 -15.0763,4.70617 -21.508469,5.44222 -5.086956,0.58212 -15.637856,0.51689 -20.372916,-0.12594 z"
         id="path69" />
    </g>
    <g
       gcodetools="Gcodetools orientation group"
       id="g323">
      <g
         gcodetools="Gcodetools orientation point (2 points)"
         id="g313">
        <path
           style="stroke:none;fill:#000000;"
           gcodetools="Gcodetools orientation point arrow"
           d="m 0 297 l 2.9375 -6.34375 l 0.8125 1.90625 l 6.84375 -6.84375 l 0 0 l 0.6875 0.6875 l -6.84375 6.84375 l 1.90625 0.8125 z"
           id="path307" />
        <text
           x="10.0"
           y="287.0"
           style="font-family:DejaVu Sans;font-style:normal;font-variant:normal;font-weight:normal;font-stretch:normal;font-family:DejaVu Sans;fill:#000000;fill-opacity:1;stroke:none;font-size:10.000000px;"
           gcodetools="Gcodetools orientation point text"
           xml:space="preserve"
           id="text311"><tspan
             x="10.0"
             y="287.0"
             sodipodi:role="line"
             id="tspan309">(0.0; 0.0; 0.0)</tspan></text>
      </g>
      <g
         gcodetools="Gcodetools orientation point (2 points)"
         id="g321">
        <path
           style="stroke:none;fill:#000000;"
           gcodetools="Gcodetools orientation point arrow"
           d="m 100 297 l 2.9375 -6.34375 l 0.8125 1.90625 l 6.84375 -6.84375 l 0 0 l 0.6875 0.6875 l -6.84375 6.84375 l 1.90625 0.8125 z"
           id="path315" />
        <text
           x="110.0"
           y="287.0"
           style="font-family:DejaVu Sans;font-style:normal;font-variant:normal;font-weight:normal;font-stretch:normal;font-family:DejaVu Sans;fill:#000000;fill-opacity:1;stroke:none;font-size:10.000000px;"
           gcodetools="Gcodetools orientation point text"
           xml:space="preserve"
           id="text319"><tspan
             x="110.0"
             y="287.0"
             sodipodi:role="line"
             id="tspan317">(100.0; 0.0; -1.0)</tspan></text>
      </g>
    </g>
  </g>
</svg>
